<mxfile host="app.diagrams.net" modified="2022-07-25T14:45:06.887Z" agent="5.0 (Macintosh; Intel Mac OS X 10_15_7) AppleWebKit/537.36 (KHTML, like Gecko) Chrome/103.0.0.0 Safari/537.36" etag="W182Rm7nrahE6nMzWmEV" version="20.2.0" type="github" pages="2">
  <diagram id="C5RBs43oDa-KdzZeNtuy" name="Narrative">
    <mxGraphModel dx="728" dy="452" grid="1" gridSize="10" guides="1" tooltips="1" connect="1" arrows="1" fold="1" page="1" pageScale="1" pageWidth="827" pageHeight="1169" math="0" shadow="0">
      <root>
        <mxCell id="WIyWlLk6GJQsqaUBKTNV-0" />
        <mxCell id="WIyWlLk6GJQsqaUBKTNV-1" parent="WIyWlLk6GJQsqaUBKTNV-0" />
        <mxCell id="QlIHeRWrZSMJ85u70a5e-8" value="" style="edgeStyle=orthogonalEdgeStyle;rounded=0;orthogonalLoop=1;jettySize=auto;html=1;" edge="1" parent="WIyWlLk6GJQsqaUBKTNV-1" source="WIyWlLk6GJQsqaUBKTNV-3">
          <mxGeometry relative="1" as="geometry">
            <mxPoint x="60" y="20" as="targetPoint" />
          </mxGeometry>
        </mxCell>
        <mxCell id="WIyWlLk6GJQsqaUBKTNV-3" value="Main Menu" style="rounded=1;whiteSpace=wrap;html=1;fontSize=12;glass=0;strokeWidth=1;shadow=0;" parent="WIyWlLk6GJQsqaUBKTNV-1" vertex="1">
          <mxGeometry width="40" height="40" as="geometry" />
        </mxCell>
        <mxCell id="WIyWlLk6GJQsqaUBKTNV-5" value="No" style="edgeStyle=orthogonalEdgeStyle;rounded=0;html=1;jettySize=auto;orthogonalLoop=1;fontSize=11;endArrow=block;endFill=0;endSize=8;strokeWidth=1;shadow=0;labelBackgroundColor=none;" parent="WIyWlLk6GJQsqaUBKTNV-1" edge="1">
          <mxGeometry y="10" relative="1" as="geometry">
            <mxPoint as="offset" />
            <mxPoint x="389" y="210" as="sourcePoint" />
            <mxPoint x="439" y="210" as="targetPoint" />
          </mxGeometry>
        </mxCell>
        <mxCell id="QlIHeRWrZSMJ85u70a5e-9" value="" style="edgeStyle=orthogonalEdgeStyle;rounded=0;orthogonalLoop=1;jettySize=auto;html=1;" edge="1" parent="WIyWlLk6GJQsqaUBKTNV-1" source="QlIHeRWrZSMJ85u70a5e-0" target="QlIHeRWrZSMJ85u70a5e-1">
          <mxGeometry relative="1" as="geometry" />
        </mxCell>
        <mxCell id="QlIHeRWrZSMJ85u70a5e-0" value="New Game" style="rounded=1;whiteSpace=wrap;html=1;" vertex="1" parent="WIyWlLk6GJQsqaUBKTNV-1">
          <mxGeometry x="60" width="40" height="40" as="geometry" />
        </mxCell>
        <mxCell id="QlIHeRWrZSMJ85u70a5e-10" value="" style="edgeStyle=orthogonalEdgeStyle;rounded=0;orthogonalLoop=1;jettySize=auto;html=1;" edge="1" parent="WIyWlLk6GJQsqaUBKTNV-1" source="QlIHeRWrZSMJ85u70a5e-1" target="QlIHeRWrZSMJ85u70a5e-2">
          <mxGeometry relative="1" as="geometry" />
        </mxCell>
        <mxCell id="QlIHeRWrZSMJ85u70a5e-1" value="Aquileia being destroyed" style="rounded=1;whiteSpace=wrap;html=1;" vertex="1" parent="WIyWlLk6GJQsqaUBKTNV-1">
          <mxGeometry x="35" y="80" width="90" height="40" as="geometry" />
        </mxCell>
        <mxCell id="QlIHeRWrZSMJ85u70a5e-2" value="Boy awakens in grotto" style="rounded=1;whiteSpace=wrap;html=1;" vertex="1" parent="WIyWlLk6GJQsqaUBKTNV-1">
          <mxGeometry x="150" y="80" width="80" height="40" as="geometry" />
        </mxCell>
        <mxCell id="dtT_1Ptxivxi_Ox9DGaR-1" value="" style="shape=process;whiteSpace=wrap;html=1;backgroundOutline=1;" vertex="1" parent="WIyWlLk6GJQsqaUBKTNV-1">
          <mxGeometry x="35" y="130" width="85" height="90" as="geometry" />
        </mxCell>
      </root>
    </mxGraphModel>
  </diagram>
  <diagram id="B2uu8xJ1TgbT9obh7omw" name="Map">
    <mxGraphModel dx="901" dy="560" grid="1" gridSize="10" guides="1" tooltips="1" connect="1" arrows="1" fold="1" page="1" pageScale="1" pageWidth="850" pageHeight="1100" math="0" shadow="0">
      <root>
        <mxCell id="0" />
        <mxCell id="1" parent="0" />
        <mxCell id="clOwdTxzz-W7DmbXwJ2e-3" value="" style="edgeStyle=orthogonalEdgeStyle;rounded=0;orthogonalLoop=1;jettySize=auto;html=1;" edge="1" parent="1" source="clOwdTxzz-W7DmbXwJ2e-1" target="clOwdTxzz-W7DmbXwJ2e-2">
          <mxGeometry relative="1" as="geometry" />
        </mxCell>
        <mxCell id="clOwdTxzz-W7DmbXwJ2e-5" value="" style="edgeStyle=orthogonalEdgeStyle;rounded=0;orthogonalLoop=1;jettySize=auto;html=1;" edge="1" parent="1" source="clOwdTxzz-W7DmbXwJ2e-1" target="clOwdTxzz-W7DmbXwJ2e-4">
          <mxGeometry relative="1" as="geometry" />
        </mxCell>
        <mxCell id="clOwdTxzz-W7DmbXwJ2e-6" value="Boat" style="edgeLabel;html=1;align=center;verticalAlign=middle;resizable=0;points=[];" vertex="1" connectable="0" parent="clOwdTxzz-W7DmbXwJ2e-5">
          <mxGeometry x="-0.25" y="2" relative="1" as="geometry">
            <mxPoint x="18" as="offset" />
          </mxGeometry>
        </mxCell>
        <mxCell id="clOwdTxzz-W7DmbXwJ2e-9" value="" style="edgeStyle=orthogonalEdgeStyle;rounded=0;orthogonalLoop=1;jettySize=auto;html=1;" edge="1" parent="1" source="clOwdTxzz-W7DmbXwJ2e-1" target="clOwdTxzz-W7DmbXwJ2e-8">
          <mxGeometry relative="1" as="geometry" />
        </mxCell>
        <mxCell id="clOwdTxzz-W7DmbXwJ2e-1" value="Aquileia" style="rounded=1;whiteSpace=wrap;html=1;" vertex="1" parent="1">
          <mxGeometry x="360" y="270" width="120" height="60" as="geometry" />
        </mxCell>
        <mxCell id="clOwdTxzz-W7DmbXwJ2e-2" value="Julium Carnicum" style="rounded=1;whiteSpace=wrap;html=1;" vertex="1" parent="1">
          <mxGeometry x="360" y="170" width="120" height="60" as="geometry" />
        </mxCell>
        <mxCell id="clOwdTxzz-W7DmbXwJ2e-4" value="Gradus" style="rounded=1;whiteSpace=wrap;html=1;" vertex="1" parent="1">
          <mxGeometry x="360" y="370" width="120" height="60" as="geometry" />
        </mxCell>
        <mxCell id="clOwdTxzz-W7DmbXwJ2e-7" value="Tergeste" style="rounded=1;whiteSpace=wrap;html=1;" vertex="1" parent="1">
          <mxGeometry x="640" y="270" width="120" height="60" as="geometry" />
        </mxCell>
        <mxCell id="clOwdTxzz-W7DmbXwJ2e-10" value="" style="edgeStyle=orthogonalEdgeStyle;rounded=0;orthogonalLoop=1;jettySize=auto;html=1;" edge="1" parent="1" source="clOwdTxzz-W7DmbXwJ2e-8" target="clOwdTxzz-W7DmbXwJ2e-7">
          <mxGeometry relative="1" as="geometry" />
        </mxCell>
        <mxCell id="clOwdTxzz-W7DmbXwJ2e-8" value="Timavo" style="rounded=1;whiteSpace=wrap;html=1;" vertex="1" parent="1">
          <mxGeometry x="500" y="270" width="120" height="60" as="geometry" />
        </mxCell>
      </root>
    </mxGraphModel>
  </diagram>
</mxfile>
